# xmcd
#
# Track frame offsets: 
#        150
#        13568
#        30691
#        49514
#        73153
#        89134
#        111039
#        126240
#
# Disc length: 1948 seconds
#
# Revision: 0
# Processed by: cddbd v1.5.2PL0 Copyright (c) Steve Scherf et al.
# Submitted via: ExactAudioCopy v1.3
#
DISCID=6a079a08
DTITLE=Barrelhouse - Got To Get Together
DYEAR=1981
DGENRE=Blues Rock
TTITLE0=Got To Get Together
TTITLE1=Let Me Love You
TTITLE2=Play The Part
TTITLE3=It's Only A Fool
TTITLE4=Deep Down In Your Heart
TTITLE5=I Won't Resign I Won't Give Up
TTITLE6=I Can't Believe
TTITLE7=Too Many People
EXTD=
EXTT0=
EXTT1=
EXTT2=
EXTT3=
EXTT4=
EXTT5=
EXTT6=
EXTT7=
PLAYORDER=
